<svg height="684" viewBox="0 0 2000 684" width="2000" xmlns="http://www.w3.org/2000/svg"><path d="m-210 627.082054s93.535156-31.541016 181.0664063 4.820313c87.53125 36.361328 110.8339843 93.71875 177.8066407 119.404296 66.972656 25.685547 143.298828-24.720703 190.673828-66.072265 47.375-41.351563 141.058594-76.578125 237.96875-64.720703s185.537109 35.683593 281.410156 17.339843 171.492189-64.326171 271.138669-196.634765c99.64649-132.308594 188.45508-226.527344 247.20508-250.798828 58.75-24.271485 226.32031-75.416016 348.05664 10.238281s147.62695 182.470703 283.9043 212.519531c136.27734 30.048828 200.34765-39.61914 200.34765-39.61914v462.553566h-2413.453524z" fill="#fff" fill-rule="evenodd" transform="translate(0 -153)"/></svg>