<svg height="42" viewBox="0 0 120 42" width="120" xmlns="http://www.w3.org/2000/svg"><g fill="none" fill-rule="evenodd"><path d="m19.4702148 32.7070313c11.0711851-9.697194 26.915148-32.7070313 40.878418-32.7070313 14.0585383 0 27.0018852 20.5313956 37.7875977 30.3022461 12.0799755 10.9433321 21.2045895 11.2592773 21.2045895 11.2592773h-119.34082s6.91037405 2.1466077 19.4702148-8.8544921z" fill="#fff"/><path d="m8 0c.55228475 0 1 .44771525 1 1v11.586l4.292-4.294c.252944-.25294404.621618-.35172993.967146-.25914599.345528.09258395.615416.36247202.708.708.0925839.34552799-.006202.71420195-.259146.96714599l-6 6c-.18760853.1880834-.44234548.2937876-.708.2937876s-.52039147-.1057042-.708-.2937876l-6-6c-.25294404-.25294404-.35172993-.621618-.25914599-.96714599.09258395-.34552798.36247202-.61541605.708-.708.34552799-.09258394.71420195.00620195.96714599.25914599l4.292 4.294v-11.586c0-.55228475.44771525-1 1-1z" fill="#4990e2" fill-rule="nonzero" transform="translate(52 15)"/></g></svg>