<svg height="432" viewBox="0 0 2000 432" width="2000" xmlns="http://www.w3.org/2000/svg"><g fill="#fff" fill-rule="evenodd" transform="translate(-21)"><path d="m41.8176116 42.926287c55.9375 35.0078125 146.9980464 34.7871093 194.2539064 24.2421875 47.255859-10.5449219 101.927734-38.1269532 159.255859-31.3496094 57.328125 6.7773437 76.947068 37.6892546 114.277344 48.9492187s82.671875 8.9199219 119.253906 13.5996094c36.582031 4.6796878 67.566406 18.8105468 93.035156 34.3535158s78.982422 65.5 136.703125 53.646484c57.720704-11.853515 92.296875-44.121094 125.78125-74.113281 33.484372-29.9921875 87.472652-71.5234375 170.968752-73.1523438 83.49609-1.6289062 104.20898 23.8610474 168.97851 48.2617188 64.76954 24.400671 107.54883 15.923828 146.29883 2.4941406 38.75-13.4296875 94.31641-80.42382814 163.85156-87.62890627 69.53516-7.20507812 111.66211 3.80664063 161.67774 22.25195317 50.01562 18.4453125 116.40234 24.015625 149.76953 5.2148437 33.36719-18.8007812 88.875-27.46679687 88.875-27.46679687v428.74460167h-1996.5359676s-52.3820008-423.05514854 3.5554992-388.047336z" fill-opacity=".531731"/><path d="m3.32037883 219.077087s123.45312517-65.8125 196.67187517-32.90625 107.498047 3.882812 156.121094 3.882812c48.623046 0 86.832031 10.460938 121.597656 19.742188s57.789062 5.148437 125.625-19.742188c67.835937-24.890625 77.410156-30.316406 122.796875-21.615234s70.791015 38.615234 95.376953 64.017578c24.585937 25.402344 46.263672 52.564453 87.572266 42.027344 41.308593-10.53711 51.30831-39.513672 109.969582-39.513672 58.66128 0 125.01089 42.908203 168.55581 60.822265 43.54492 17.914063 73.07422 20.646485 100.95312 17.212891 27.87891-3.433594 87.5586-36.419922 113.93555-41.490234 26.37695-5.070313 68.92188-9.144532 116.82617-34.095703 47.9043-24.951172 84.4375-71.978516 142.58594-83.552735s131.54492 4.410156 191.58594 27.119141c60.04101 22.708984 146.34961-7.896485 175.77929-27.119141 29.42969-19.222656 0 277.22199 0 277.22199h-2029.2735z"/></g></svg>